<svg xmlns="http://www.w3.org/2000/svg" id="a" width="865.76" height="682.89" viewBox="0 0 865.76 682.89">
    <g>
        <g>
            <g>
                <path
                    d="M314.73,317.16h0c9.25-16.86,14.53-36.26,14.53-56.92,0-64.75-51.77-117.24-115.62-117.24s-115.62,52.49-115.62,117.24c0,20.66,5.28,40.07,14.53,56.92h0s.02,.03,.06,.09c1.31,2.39,2.7,4.73,4.17,7.01,.98,1.52,1.9,3.07,2.79,4.64,11.94,21.02,34.9,66.54,34.84,105.41h119.11c4.45-44.12,22.35-83.06,33.05-103.01,1.72-3.2,3.56-6.32,5.45-9.42,.93-1.52,1.83-3.07,2.69-4.63,.03-.05,.05-.08,.05-.08h-.03Z"
                    fill="#fff"></path>
                <path
                    d="M273.94,434.8h-120.07v-.5c.06-38.1-21.76-82.24-34.77-105.16-.97-1.71-1.88-3.22-2.78-4.62-1.45-2.25-2.86-4.62-4.19-7.04l-.5-.77h.08c-9.3-17.23-14.21-36.74-14.21-56.48,0-64.92,52.09-117.74,116.12-117.74s116.12,52.82,116.12,117.74c0,19.72-4.9,39.21-14.19,56.42h.07l-.54,.85c-.85,1.54-1.75,3.11-2.68,4.62-2.21,3.63-3.94,6.61-5.43,9.39-10.4,19.4-28.53,58.55-32.99,102.82l-.05,.45v.02Zm-119.05-1h118.16c4.56-44.25,22.66-83.34,33.06-102.74,1.5-2.8,3.24-5.8,5.46-9.44,.92-1.51,1.82-3.06,2.68-4.62l.05-.08c9.46-17.24,14.47-36.84,14.47-56.68,0-64.37-51.65-116.74-115.12-116.74s-115.12,52.37-115.12,116.74c0,19.84,5,39.44,14.47,56.68l.18,.33c1.29,2.33,2.64,4.58,4.02,6.74,.91,1.42,1.83,2.94,2.81,4.66,13.01,22.91,34.78,66.94,34.91,105.15h-.03Z"
                    fill="#231f20"></path>
            </g>
            <g>
                <path
                    d="M268.88,351.69c-24.33-8.82-44.43,13.03-50.52,20.65-.07-9.12-.22-18.12-.42-26.83,8.29,1.88,16.21-.57,16.21-.57,23.79-7.07,24.12-24.76,24.12-24.76-19.61-8.1-35.39,8.44-40.6,14.92-1.19-41.19-3.4-73.2-3.4-73.2-1.83,16.86-2.89,36.26-3.46,55.55-20.07-23.14-39.67-13.34-39.67-13.34,8.79,26.93,32.62,26.83,39.36,26.23-.18,9.46-.26,18.74-.27,27.53h0s-19.47-30.61-49.38-20.64c0,0,3.64,34.13,49.41,32.34h0c.16,28.65,.96,49.64,.96,49.64h6.64c.39-11.8,.55-24,.55-36.14,9.1,4.21,24.27-1.11,24.27-1.11,27.81-11.87,26.21-30.25,26.21-30.25v-.02Z"
                    fill="#56cc6e" data-primary="true"></path>
                <path
                    d="M218.34,419.69h-7.6l-.02-.48c0-.21-.79-21.07-.96-49.14-45.22,1.5-49.37-32.46-49.41-32.8l-.04-.4,.38-.13c26.3-8.77,44.81,13.74,49.04,19.53,.02-8.76,.1-17.29,.26-25.41-7.73,.57-30.67-.13-39.32-26.61l-.13-.41,.39-.19c.2-.1,19.63-9.43,39.43,12.51,.65-21.09,1.8-39.36,3.43-54.33l1,.02c.02,.32,2.18,31.8,3.36,71.89,6.41-7.6,21.56-21.8,40.33-14.04l.32,.13v.34c0,.18-.61,18.13-24.48,25.23-.32,.1-7.76,2.35-15.84,.72,.2,8.48,.33,16.82,.4,24.81,6.73-8.09,26.55-28.3,50.2-19.73l.3,.11,.03,.32c.02,.19,1.32,18.89-26.51,30.76-.64,.23-14.75,5.09-23.97,1.41,0,12.63-.19,24.53-.55,35.4l-.02,.48h-.02Zm-6.64-.99h5.67c.35-10.94,.53-22.93,.53-35.64v-.78l.71,.33c8.81,4.07,23.75-1.07,23.9-1.12,25.16-10.73,25.92-26.97,25.88-29.43-24.03-8.46-44.06,13.61-49.64,20.6l-.88,1.1v-1.41c-.08-8.61-.22-17.63-.43-26.82v-.64l.61,.14c8.06,1.83,15.88-.54,15.95-.56,21.34-6.35,23.53-21.5,23.74-23.95-18.89-7.55-34.03,7.88-39.69,14.9l-.85,1.05-.04-1.35c-.88-30.37-2.33-55.99-3.01-67.17-1.34,14.05-2.29,30.67-2.85,49.52l-.04,1.28-.84-.97c-18.02-20.77-35.82-14.58-38.67-13.4,8.75,26.03,31.81,26.07,38.69,25.45l.56-.05v.56c-.18,8.76-.27,18.02-.28,27.52v1.71l-.92-1.44c-.19-.3-19.44-29.89-48.4-20.57,.61,3.79,6.76,33.14,48.83,31.49l.52-.02v.52c.15,25.95,.83,45.84,.95,49.14h0Z"
                    fill="#231f20"></path>
            </g>
            <g>
                <rect x="143.53" y="419.19" width="140.19" height="88.1" rx="12.4" ry="12.4" fill="#56cc6e"
                    data-primary="true"></rect>
                <path
                    d="M271.32,507.79h-115.38c-7.11,0-12.9-5.79-12.9-12.9v-63.3c0-7.11,5.79-12.9,12.9-12.9h115.38c7.11,0,12.9,5.79,12.9,12.9v63.3c0,7.11-5.79,12.9-12.9,12.9Zm-115.38-88.1c-6.56,0-11.9,5.34-11.9,11.9v63.3c0,6.56,5.34,11.9,11.9,11.9h115.38c6.56,0,11.9-5.34,11.9-11.9v-63.3c0-6.56-5.34-11.9-11.9-11.9h-115.38Z"
                    fill="#231f20"></path>
            </g>
            <g>
                <rect x="133.24" y="426.91" width="162.05" height="14.15" rx="7.07" ry="7.07" fill="#56cc6e"
                    data-primary="true"></rect>
                <path
                    d="M288.22,441.55H140.31c-4.18,0-7.57-3.4-7.57-7.57s3.4-7.57,7.57-7.57h147.91c4.18,0,7.57,3.4,7.57,7.57s-3.4,7.57-7.57,7.57Zm-147.91-14.15c-3.62,0-6.57,2.95-6.57,6.57s2.95,6.57,6.57,6.57h147.91c3.62,0,6.57-2.95,6.57-6.57s-2.95-6.57-6.57-6.57H140.31Z"
                    fill="#231f20"></path>
            </g>
            <g>
                <rect x="132.6" y="449.09" width="162.05" height="14.15" rx="7.07" ry="7.07" fill="#56cc6e"
                    data-primary="true"></rect>
                <path
                    d="M287.58,463.74H139.67c-4.18,0-7.57-3.4-7.57-7.57s3.4-7.57,7.57-7.57h147.91c4.18,0,7.57,3.4,7.57,7.57s-3.4,7.57-7.57,7.57h0Zm-147.91-14.15c-3.62,0-6.57,2.95-6.57,6.57s2.95,6.57,6.57,6.57h147.91c3.62,0,6.57-2.95,6.57-6.57s-2.95-6.57-6.57-6.57H139.67Z"
                    fill="#231f20"></path>
            </g>
            <g>
                <rect x="133.24" y="474.49" width="162.05" height="14.15" rx="7.07" ry="7.07" fill="#56cc6e"
                    data-primary="true"></rect>
                <path
                    d="M288.22,489.14H140.31c-4.18,0-7.57-3.4-7.57-7.57s3.4-7.57,7.57-7.57h147.91c4.18,0,7.57,3.4,7.57,7.57s-3.4,7.57-7.57,7.57Zm-147.91-14.15c-3.62,0-6.57,2.95-6.57,6.57s2.95,6.57,6.57,6.57h147.91c3.62,0,6.57-2.95,6.57-6.57s-2.95-6.57-6.57-6.57H140.31Z"
                    fill="#231f20"></path>
            </g>
            <path
                d="M357.17,528.5c-.09,0-.18-.02-.26-.07-4.65-2.86-9.36-4.68-14.01-5.42-12.73-2.05-21.14,4.54-21.22,4.61-.13,.1-.3,.14-.46,.09-54.38-16.16-85.18-.85-85.49-.69-.12,.06-.27,.07-.4,.02-26.75-9.81-49.42,1.3-49.65,1.41-.13,.07-.28,.07-.42,.01-32.92-13.98-67.69-1.55-68.03-1.43-.1,.04-.21,.04-.31,0-12.9-3.8-23.95-5.43-32.86-4.84-11.04,.72-14.79,4.66-14.83,4.7-.19,.2-.5,.22-.71,.03-.2-.19-.22-.5-.03-.7,.16-.17,4.01-4.28,15.5-5.03,8.99-.59,20.11,1.04,33.05,4.84,2.6-.9,36.32-12.1,68.4,1.41,2.38-1.11,24.35-10.76,50.03-1.43,2.76-1.3,33.46-14.83,85.79,.65,1.42-1.03,9.76-6.6,21.79-4.66,4.78,.76,9.61,2.64,14.37,5.56,.24,.14,.31,.45,.16,.69-.09,.15-.26,.24-.43,.24h.02Z"
                fill="#231f20"></path>
            <g>
                <path
                    d="M342.98,522.51c-13.1-2.11-21.61,4.71-21.61,4.71-55.21-16.4-85.86-.66-85.86-.66-27.27-10-50.05,1.43-50.05,1.43-33.49-14.22-68.4-1.43-68.4-1.43-14.97-4.41-25.62-5.35-33.03-4.86,8.86-14.28,39.88-53.13,115.42-54.6h0c2.94-.06,5.94-.06,9.03,0,0,0,97.13-7.33,134.5,55.41h0Z"
                    fill="#f1f2f2"></path>
                <path
                    d="M185.48,528.55l-.21-.09c-32.92-13.98-67.69-1.55-68.03-1.43l-.15,.06-.16-.05c-12.9-3.8-23.95-5.43-32.86-4.84l-.97,.06,.51-.83c4.33-6.98,14.37-20.46,32.86-32.26,22.48-14.35,50.4-21.94,82.98-22.58,2.94-.06,5.98-.06,9.05,0,.2-.02,24.64-1.77,53.33,4.19,26.52,5.5,62.19,18.9,81.59,51.47l.55,.92-1.06-.17c-12.71-2.05-21.14,4.54-21.22,4.61l-.2,.16-.25-.07c-54.34-16.15-85.18-.85-85.49-.69l-.19,.1-.21-.08c-26.75-9.81-49.42,1.3-49.65,1.41l-.21,.1h0Zm-34.73-7.71c10.68,0,22.8,1.61,34.7,6.62,2.38-1.11,24.35-10.76,50.03-1.43,2.76-1.3,33.47-14.83,85.79,.65,1.38-1,9.28-6.27,20.74-4.81-19.33-31.6-54.32-44.69-80.39-50.1-28.55-5.93-52.85-4.19-53.1-4.17-3.1-.06-6.14-.06-9.05,0-73,1.43-104.11,37.27-114.5,53.55,8.81-.42,19.6,1.23,32.08,4.89,1.64-.57,15.59-5.21,33.71-5.21h0Z"
                    fill="#231f20"></path>
            </g>
            <path
                d="M123.23,243.51s-.08,0-.12,0c-.27-.06-.44-.33-.37-.6,.04-.16,3.85-15.96,15.35-32.92,10.62-15.67,30.14-35.56,62.86-41.41,.27-.05,.53,.13,.58,.4s-.13,.53-.4,.58c-32.37,5.78-51.69,25.46-62.19,40.96-11.4,16.81-15.18,32.46-15.22,32.62-.05,.23-.26,.39-.49,.39h0Z"
                fill="#231f20"></path>
            <g>
                <g opacity=".2">
                    <path
                        d="M304.02,314.46h0c8.27-15.07,12.99-32.42,12.99-50.89,0-57.89-46.28-104.82-103.37-104.82s-103.37,46.93-103.37,104.82c0,18.47,4.72,35.82,12.99,50.89h0s.02,.03,.05,.08c1.17,2.13,2.42,4.23,3.73,6.27,.87,1.36,1.7,2.74,2.5,4.15,10.67,18.79,31.21,59.49,31.15,94.24h106.49c3.98-39.44,19.98-74.26,29.55-92.09,1.53-2.86,3.18-5.65,4.87-8.42,.83-1.36,1.63-2.74,2.4-4.14,.03-.04,.05-.07,.05-.07l-.03-.02Z"
                        fill="#cfe5cd" data-secondary="true"></path>
                </g>
                <path
                    d="M267.6,419.69h-107.44v-.5c.06-34.05-19.45-73.5-31.08-93.99-.86-1.52-1.67-2.87-2.48-4.13-1.29-2.01-2.56-4.13-3.74-6.3l-.04-.08h0s-.05-.09-.07-.14l-.29-.53h0c-8.3-15.4-12.69-32.83-12.69-50.47,0-58.07,46.6-105.32,103.87-105.32s103.87,47.25,103.87,105.32c0,17.61-4.37,35.01-12.65,50.39h.08l-.5,.77-.41-.26,.36,.34c-.75,1.37-1.57,2.77-2.4,4.13-1.98,3.24-3.52,5.91-4.86,8.4-9.3,17.34-25.5,52.34-29.49,91.91l-.05,.45h0Zm-106.44-.99h105.54c4.09-39.55,20.26-74.49,29.56-91.83,1.34-2.51,2.9-5.19,4.88-8.45,.82-1.35,1.63-2.73,2.39-4.12l.04-.07c8.46-15.41,12.93-32.92,12.93-50.65,0-57.52-46.15-104.32-102.87-104.32s-102.87,46.8-102.87,104.32c0,17.73,4.47,35.24,12.93,50.65l.04,.08c1.18,2.14,2.43,4.24,3.71,6.24,.82,1.27,1.64,2.64,2.51,4.17,11.62,20.47,31.08,59.82,31.21,93.98h0Z"
                    fill="#231f20"></path>
            </g>
        </g>
        <g>
            <g>
                <path
                    d="M500.93,307.55h-.01c13.09-23.85,20.55-51.31,20.55-80.54,0-91.62-73.25-165.89-163.6-165.89s-163.6,74.27-163.6,165.89c0,29.23,7.47,56.69,20.55,80.54h0s.03,.04,.08,.12c1.86,3.38,3.82,6.69,5.9,9.92,1.38,2.15,2.69,4.34,3.95,6.57,16.89,29.74,49.39,94.14,49.3,149.14h168.53c6.3-62.42,31.63-117.52,46.76-145.74,2.43-4.52,5.03-8.95,7.71-13.33,1.32-2.15,2.58-4.34,3.8-6.56,.05-.07,.08-.12,.08-.12h.01Z"
                    fill="#fff"></path>
                <path
                    d="M443.03,473.8h-169.49v-.5c.09-53.95-30.81-116.44-49.23-148.89-1.37-2.41-2.66-4.55-3.94-6.54-2.05-3.19-4.04-6.53-5.92-9.95l-.56-.86h.09c-13.23-24.4-20.21-52.05-20.21-80.04,0-91.75,73.61-166.39,164.1-166.39s164.1,74.64,164.1,166.39c0,27.99-6.99,55.64-20.21,80.04h.08l-.57,.89c-1.19,2.18-2.48,4.39-3.79,6.55-3.14,5.13-5.58,9.36-7.69,13.3-14.73,27.46-40.38,82.89-46.71,145.56l-.05,.45h0Zm-168.49-1.01h167.58c6.42-62.66,32.05-118.02,46.77-145.48,2.12-3.96,4.58-8.2,7.72-13.35,1.31-2.14,2.58-4.34,3.79-6.54l.06-.12c13.41-24.43,20.49-52.2,20.49-80.3,0-91.2-73.17-165.39-163.1-165.39s-163.1,74.19-163.1,165.39c0,28.1,7.09,55.87,20.49,80.3l.18,.33c1.84,3.34,3.78,6.58,5.77,9.68,1.29,2.01,2.59,4.16,3.97,6.59,18.42,32.44,49.26,94.82,49.36,148.89h.02Z"
                    fill="#231f20"></path>
            </g>
            <g>
                <path
                    d="M436.06,356.4c-34.43-12.48-62.87,18.44-71.48,29.21-.1-12.9-.31-25.64-.6-37.96,11.73,2.66,22.94-.81,22.94-.81,33.67-10.01,34.12-35.03,34.12-35.03-27.74-11.47-50.07,11.95-57.45,21.11-1.68-58.28-4.81-103.58-4.81-103.58-2.59,23.85-4.09,51.31-4.9,78.6-28.4-32.74-56.13-18.88-56.13-18.88,12.44,38.11,46.15,37.96,55.69,37.11-.26,13.38-.37,26.52-.38,38.96h0s-27.56-43.31-69.86-29.21c0,0,5.15,48.29,69.9,45.75h0c.23,40.53,1.36,70.23,1.36,70.23h9.39c.55-16.7,.78-33.96,.78-51.14,12.88,5.95,34.34-1.57,34.34-1.57,39.35-16.79,37.08-42.81,37.08-42.81v.02Z"
                    fill="#56cc6e" data-primary="true"></path>
                <path
                    d="M364.35,452.41h-10.36l-.02-.48c-.01-.3-1.13-29.91-1.36-69.73-33.33,1.17-50.54-11.37-59.13-22.13-9.36-11.73-10.76-23.96-10.77-24.09l-.04-.4,.38-.13c37.93-12.64,64.36,20.85,69.52,28.08,.02-12.7,.15-25.07,.37-36.81-10.66,.83-43.37,.1-55.65-37.5l-.13-.41,.39-.19c.28-.14,27.85-13.38,55.89,18.05,.91-30.06,2.55-56.08,4.87-77.38l1,.02c.03,.45,3.1,45.28,4.77,102.26,8.82-10.6,30.39-31.29,57.18-20.22l.32,.13v.34c-.01,.25-.86,25.5-34.48,35.5-.11,.03-11.07,3.36-22.57,.96,.28,12.28,.48,24.36,.57,35.94,9.13-11.1,37.38-40.54,71.16-28.29l.3,.11,.03,.32c.02,.26,1.85,26.57-37.38,43.31-.9,.32-21.08,7.27-34.04,1.87,0,17.98-.27,34.92-.78,50.39l-.02,.48h-.02Zm-9.4-1h8.43c.5-15.54,.76-32.57,.76-50.64v-.78l.71,.33c12.55,5.8,33.76-1.51,33.97-1.58,36.18-15.44,36.83-38.99,36.76-41.98-34.18-12.14-62.67,19.24-70.6,29.17l-.88,1.1v-1.41c-.1-12.19-.3-24.96-.61-37.95v-.64l.61,.14c11.46,2.6,22.57-.77,22.68-.8,30.79-9.15,33.52-31.23,33.75-34.23-26.92-10.87-48.49,11.1-56.54,21.09l-.85,1.05-.04-1.35c-1.31-45.53-3.54-83.51-4.43-97.65-2.02,20.43-3.46,44.83-4.29,72.67l-.04,1.28-.84-.97c-25.99-29.95-51.67-20.42-55.13-18.94,12.38,37.15,45.22,37.21,55.03,36.34l.56-.05v.56c-.25,12.39-.38,25.49-.39,38.95v1.71l-.92-1.45c-.27-.43-27.67-42.54-68.89-29.13,.32,2.18,2.28,12.88,10.54,23.21,8.49,10.62,25.58,23,58.79,21.7l.52-.02v.52c.21,37.29,1.2,65.73,1.35,69.73v.02Z"
                    fill="#231f20"></path>
            </g>
            <g>
                <rect x="258.7" y="451.91" width="198.35" height="124.65" rx="17.55" ry="17.55" fill="#56cc6e"
                    data-primary="true"></rect>
                <path
                    d="M439.51,577.07h-163.26c-9.95,0-18.05-8.1-18.05-18.05v-89.56c0-9.95,8.1-18.05,18.05-18.05h163.26c9.95,0,18.05,8.1,18.05,18.05v89.56c0,9.95-8.1,18.05-18.05,18.05Zm-163.26-124.65c-9.4,0-17.05,7.65-17.05,17.05v89.56c0,9.4,7.65,17.05,17.05,17.05h163.26c9.4,0,17.05-7.65,17.05-17.05v-89.56c0-9.4-7.65-17.05-17.05-17.05h-163.26Z"
                    fill="#231f20"></path>
            </g>
            <g>
                <path
                    d="M254.15,462.83h209.27c5.53,0,10.01,4.48,10.01,10.01h0c0,5.53-4.48,10.01-10.01,10.01H254.15c-5.53,0-10.01-4.48-10.01-10.01h0c0-5.53,4.48-10.01,10.01-10.01Z"
                    fill="#56cc6e" data-primary="true"></path>
                <path
                    d="M463.42,483.35H254.15c-5.79,0-10.51-4.71-10.51-10.51s4.71-10.51,10.51-10.51h209.27c5.79,0,10.51,4.71,10.51,10.51s-4.71,10.51-10.51,10.51h0Zm-209.27-20.02c-5.24,0-9.51,4.27-9.51,9.51s4.27,9.51,9.51,9.51h209.27c5.24,0,9.51-4.27,9.51-9.51s-4.27-9.51-9.51-9.51H254.15Z"
                    fill="#231f20"></path>
            </g>
            <g>
                <path
                    d="M253.24,494.22h209.27c5.53,0,10.01,4.48,10.01,10.01h0c0,5.53-4.48,10.01-10.01,10.01H253.24c-5.53,0-10.01-4.48-10.01-10.01h0c0-5.53,4.48-10.01,10.01-10.01Z"
                    fill="#56cc6e" data-primary="true"></path>
                <path
                    d="M462.51,514.74H253.24c-5.79,0-10.51-4.71-10.51-10.51s4.71-10.51,10.51-10.51h209.27c5.79,0,10.51,4.71,10.51,10.51s-4.71,10.51-10.51,10.51Zm-209.27-20.02c-5.24,0-9.51,4.27-9.51,9.51s4.27,9.51,9.51,9.51h209.27c5.24,0,9.51-4.27,9.51-9.51s-4.27-9.51-9.51-9.51H253.24Z"
                    fill="#231f20"></path>
            </g>
            <g>
                <path
                    d="M254.15,530.16h209.27c5.53,0,10.01,4.48,10.01,10.01h0c0,5.53-4.48,10.01-10.01,10.01H254.15c-5.53,0-10.01-4.48-10.01-10.01h0c0-5.53,4.48-10.01,10.01-10.01Z"
                    fill="#56cc6e" data-primary="true"></path>
                <path
                    d="M463.42,550.68H254.15c-5.79,0-10.51-4.71-10.51-10.51s4.71-10.51,10.51-10.51h209.27c5.79,0,10.51,4.71,10.51,10.51s-4.71,10.51-10.51,10.51h0Zm-209.27-20.02c-5.24,0-9.51,4.27-9.51,9.51s4.27,9.51,9.51,9.51h209.27c5.24,0,9.51-4.27,9.51-9.51s-4.27-9.51-9.51-9.51H254.15Z"
                    fill="#231f20"></path>
            </g>
            <path
                d="M560.98,606.37c-.09,0-.18-.02-.26-.07-6.6-4.05-13.29-6.65-19.9-7.7-18.08-2.92-30.07,6.47-30.19,6.57-.13,.1-.3,.13-.46,.09-76.99-22.88-120.68-1.19-121.11-.96-.12,.06-.27,.07-.4,.02-37.92-13.91-70.09,1.85-70.41,2.01-.13,.07-.28,.07-.42,.01-46.66-19.81-95.92-2.2-96.41-2.02-.1,.04-.21,.04-.31,0-18.27-5.38-33.94-7.69-46.57-6.86-15.73,1.02-21.07,6.66-21.12,6.72-.19,.2-.5,.22-.71,.03-.2-.19-.22-.5-.03-.7,.22-.24,5.61-5.99,21.8-7.04,12.71-.84,28.44,1.47,46.76,6.85,3.12-1.09,51.14-17.26,96.78,2.01,2.87-1.35,34.16-15.37,70.79-2.02,3.31-1.58,46.82-21.17,121.41,.92,1.71-1.26,13.56-9.39,30.76-6.61,6.73,1.08,13.55,3.72,20.26,7.84,.24,.15,.31,.45,.16,.69-.09,.15-.26,.24-.43,.24v-.02Z"
                fill="#231f20"></path>
            <g>
                <path
                    d="M540.9,598.1c-18.53-2.99-30.58,6.67-30.58,6.67-78.11-23.21-121.48-.93-121.48-.93-38.58-14.15-70.81,2.03-70.81,2.03-47.39-20.12-96.78-2.03-96.78-2.03-21.18-6.24-36.25-7.57-46.74-6.88,12.54-20.2,56.42-75.17,163.31-77.26h.01c4.16-.08,8.41-.08,12.77,0,0,0,137.43-10.37,190.3,78.4Z"
                    fill="#f1f2f2"></path>
                <path
                    d="M318.05,606.42l-.21-.09c-46.66-19.81-95.92-2.2-96.41-2.02l-.15,.06-.16-.05c-18.27-5.38-33.94-7.69-46.57-6.86l-.97,.06,.51-.83c6.12-9.86,20.3-28.9,46.43-45.58,31.77-20.28,71.24-31.02,117.3-31.92,4.15-.08,8.46-.08,12.8,0,.3-.02,34.85-2.5,75.42,5.92,37.48,7.78,87.9,26.71,115.3,72.72l.55,.92-1.06-.17c-18.08-2.92-30.07,6.47-30.19,6.57l-.2,.16-.25-.07c-77.02-22.89-120.68-1.19-121.11-.96l-.19,.1-.21-.08c-37.92-13.91-70.09,1.85-70.41,2.01l-.21,.1h0Zm-49.13-10.48c15.11,0,32.26,2.29,49.1,9.39,2.87-1.35,34.16-15.37,70.79-2.02,3.31-1.58,46.82-21.17,121.41,.92,1.68-1.23,13.07-9.05,29.7-6.77-27.34-45.04-77.07-63.66-114.1-71.35-40.43-8.39-74.84-5.93-75.18-5.9-4.38-.08-8.67-.08-12.8,0-103.89,2.03-147.9,53.3-162.39,76.2,12.54-.66,27.93,1.66,45.79,6.91,1.97-.69,21.83-7.38,47.68-7.38h0Z"
                    fill="#231f20"></path>
            </g>
            <path
                d="M229.97,203.13s-.08,0-.12,0c-.27-.06-.44-.33-.37-.6,.05-.22,5.44-22.55,21.68-46.51,15-22.13,42.58-50.25,88.81-58.5,.27-.05,.53,.13,.58,.4,.05,.27-.13,.53-.4,.58-45.87,8.19-73.25,36.09-88.14,58.05-16.15,23.82-21.51,45.99-21.56,46.21-.05,.23-.26,.39-.49,.39h.01Z"
                fill="#231f20"></path>
            <g>
                <g opacity=".2">
                    <path
                        d="M485.77,303.73h-.01c11.7-21.32,18.38-45.87,18.38-72.01,0-81.91-65.48-148.31-146.26-148.31s-146.26,66.4-146.26,148.31c0,26.13,6.67,50.68,18.38,72.01h0s.03,.04,.07,.11c1.66,3.02,3.42,5.98,5.27,8.87,1.24,1.92,2.4,3.88,3.53,5.87,15.1,26.59,44.15,84.17,44.07,133.34h150.68c5.63-55.81,28.27-105.07,41.81-130.3,2.17-4.05,4.5-8,6.89-11.91,1.18-1.93,2.31-3.88,3.4-5.86,.04-.06,.07-.11,.07-.11h-.01Z"
                        fill="#cfe5cd" data-secondary="true"></path>
                </g>
                <path
                    d="M434.06,452.41h-151.63v-.5c.08-48.22-27.54-104.08-44.01-133.09-1.22-2.15-2.37-4.07-3.52-5.85-1.83-2.85-3.61-5.84-5.29-8.9l-.55-.85h.09c-11.8-21.8-18.04-46.51-18.04-71.51,0-82.05,65.84-148.81,146.76-148.81s146.76,66.76,146.76,148.81c0,25-6.23,49.71-18.04,71.51h.08l-.56,.88c-1.07,1.95-2.22,3.93-3.39,5.85-2.8,4.58-4.99,8.36-6.88,11.89-13.17,24.55-36.1,74.09-41.75,130.12l-.05,.45h.02Zm-150.63-1h149.72c5.75-56.01,28.65-105.49,41.82-130.04,1.9-3.54,4.09-7.34,6.9-11.94,1.17-1.91,2.31-3.88,3.39-5.84l.06-.11c11.98-21.83,18.32-46.65,18.32-71.77,0-81.5-65.39-147.81-145.76-147.81s-145.76,66.31-145.76,147.81c0,25.12,6.33,49.93,18.32,71.77l.22,.4c1.63,2.95,3.34,5.82,5.1,8.54,1.15,1.8,2.32,3.72,3.55,5.89,16.46,28.99,44.03,84.75,44.14,133.08l-.02,.02Z"
                    fill="#231f20"></path>
            </g>
        </g>
        <g>
            <g>
                <path
                    d="M597.73,563.63s-6.76,5.44-15.4,7.5l-10.37,14.82,2.23,3.68s3.13,1.35,13.6-3.68c0,0,5.33-3.04,9.94-1.76,0,0,18.39,5.71,25.38-17.2,0,0-14.98,3.92-25.38-3.35h0Z"
                    fill="#fda57f"></path>
                <path
                    d="M575.48,590.28c-1.01,0-1.45-.18-1.5-.2l-.15-.06-2.48-4.1,10.66-15.24,.19-.04c8.43-2.01,15.14-7.35,15.21-7.4l.29-.23,.31,.21c10.09,7.06,24.82,3.32,24.96,3.28l.87-.23-.26,.86c-2.37,7.76-6.28,13.13-11.63,15.97-7.1,3.76-14.08,1.66-14.37,1.57-4.35-1.2-9.5,1.69-9.55,1.71-6.87,3.3-10.68,3.9-12.54,3.9h-.01Zm-.97-1.08c.68,.15,4.18,.56,13.05-3.71,.19-.11,5.53-3.11,10.29-1.79,.08,.02,6.91,2.07,13.63-1.5,4.91-2.61,8.57-7.49,10.87-14.54-3.35,.72-15.5,2.73-24.62-3.42-1.4,1.05-7.56,5.47-15.12,7.32l-10.07,14.4,1.96,3.24h.01Z"
                    fill="#231f20"></path>
            </g>
            <path
                d="M576.79,582.01c-.15,0-.31-.07-.41-.21-.16-.22-.11-.54,.11-.7,.18-.13,.37-.26,.55-.39,3.15-2.18,6.77-3.81,10.77-4.86,3.43-.9,7.79-2.79,7.83-2.81,.25-.11,.55,0,.66,.26,.11,.25,0,.55-.26,.66-.04,.02-4.47,1.94-7.98,2.86-3.88,1.02-7.4,2.61-10.46,4.72-.18,.12-.36,.25-.53,.38-.09,.06-.19,.1-.29,.1h.01Z"
                fill="#231f20"></path>
            <g>
                <path d="M629.49,605.87s-10.32,10.53,8.79,14.17c0,0,47.31,6.5,52.09-5.85l-60.88-8.32Z" fill="#fff">
                </path>
                <path
                    d="M663.41,622.27c-12.3,0-24.22-1.6-25.19-1.73-6.78-1.29-10.72-3.6-11.74-6.86-1.28-4.07,2.5-7.99,2.66-8.16l.18-.18,.25,.03,61.51,8.41-.23,.59c-2.43,6.29-15.12,7.9-27.43,7.9h-.01Zm-33.72-15.87c-.69,.78-3.22,3.93-2.26,6.98,.91,2.88,4.59,4.96,10.95,6.17,.44,.06,45.39,6.1,51.26-4.95l-59.96-8.2h.01Z"
                    fill="#231f20"></path>
            </g>
            <g>
                <path
                    d="M719.28,619.13h-13.67c-10.46,0-12.9-5.32-12.9-5.32h0c2.12-.36,3.35-.6,3.35-.6,28.56,3.13,29.52-5.71,29.23-8.25,2.77,14.54-6.01,14.16-6.01,14.16h0Z"
                    fill="#fff"></path>
                <path
                    d="M719.35,619.63h-13.74c-10.66,0-13.25-5.38-13.36-5.61l-.05-.21v-.42l.42-.07c2.11-.35,3.33-.59,3.34-.59h.15c17.65,1.94,24.45-.76,27.04-3.36,1.66-1.67,1.74-3.43,1.63-4.33l.99-.15c1.1,5.77,.56,9.96-1.61,12.47-1.87,2.17-4.31,2.29-4.82,2.29v-.02Zm-25.81-5.46c.99,1.32,4.17,4.45,12.08,4.45h13.69c.09,0,2.39,.06,4.12-1.95,1.53-1.78,2.14-4.7,1.81-8.53-.3,.63-.73,1.28-1.37,1.91-3.99,4-13.34,5.24-27.79,3.66-.25,.05-1.14,.21-2.54,.45h0Z"
                    fill="#231f20"></path>
            </g>
            <g>
                <path
                    d="M782.58,543.01c-3.05,4.75-5.63,9.8-7.47,15.15-2.41,6.98-3.66,12.96-3.66,12.96-2.86,15.23-11.89,14.82-11.89,14.82l-24.37-.02c-22.29,.45-22.29-5.91-22.29-5.91-.26-.97,.06-1.91,.76-2.78,0-.02,.03-.04,.04-.05,.1-.12,.21-.24,.32-.36,3.24-3.38,11.81-5.7,11.81-5.7,13.39-4.34,14.81-13.87,14.81-13.87l2.27-22.29c.38-2.43,.23-4.68-.19-6.66-.83-3.89-2.91-7.41-5.8-10.16l-7.66-7.29c-.91-3.18,4.55-5.91,4.55-5.91l-1.33-1.21c-.56-.51-.64-1.36-.19-1.96,8.7-11.7,25.41-15.96,30.5-17.02,.81-.17,1.59,.36,1.73,1.18,3.27,19.56,18.43,39.48,18.43,39.48,.95,1.11,1.63,2.26,2.09,3.41,2.19,5.43-.42,11.01-2.47,14.19h0Z"
                    fill="#cfe5cd" data-secondary="true"></path>
                <path
                    d="M759.65,586.44h-.12l-24.35-.02c-14.02,.28-19.47-2.11-21.57-4.17-1.04-1.02-1.2-1.9-1.22-2.17-.26-1.04,.02-2.09,.84-3.12l.16-.19c.09-.1,.17-.2,.27-.3,3.3-3.44,11.68-5.74,12.04-5.83,12.89-4.17,14.44-13.37,14.45-13.46l2.27-22.27c.34-2.16,.28-4.34-.19-6.51-.79-3.71-2.75-7.13-5.65-9.9l-7.76-7.39-.04-.13c-.82-2.87,2.69-5.28,4.17-6.15l-.81-.74c-.75-.69-.86-1.82-.26-2.63,8.82-11.87,25.8-16.17,30.8-17.21,.52-.11,1.06,0,1.5,.3s.73,.76,.82,1.29c3.21,19.21,18.18,39.06,18.33,39.26,.92,1.09,1.66,2.28,2.16,3.53,2.31,5.74-.58,11.64-2.51,14.65h0c-3.21,5-5.7,10.06-7.42,15.04-2.37,6.87-3.63,12.84-3.65,12.9-2.76,14.7-11.13,15.22-12.28,15.22h.02Zm-24.48-1.02l24.38,.02c.36,0,8.67,.17,11.4-14.41,.01-.07,1.29-6.1,3.68-13.03,1.74-5.06,4.27-10.19,7.52-15.26h0c1.83-2.84,4.57-8.41,2.42-13.73-.46-1.15-1.14-2.25-2.01-3.28-.17-.22-15.29-20.27-18.54-39.72-.04-.26-.19-.48-.4-.63-.22-.15-.48-.2-.73-.15-4.91,1.02-21.59,5.24-30.2,16.83-.3,.4-.24,.96,.13,1.29l1.87,1.69-.65,.33s-4.93,2.5-4.32,5.2l7.55,7.19c3.05,2.91,5.11,6.51,5.94,10.41,.49,2.29,.56,4.59,.2,6.84l-2.27,22.26c-.06,.42-1.62,9.91-15.16,14.29-.11,.03-8.5,2.33-11.6,5.57-.08,.09-.16,.18-.24,.26l-.07,.08c-.68,.85-.9,1.61-.7,2.36l.02,.13s.51,5.86,21.78,5.41v.05Z"
                    fill="#231f20"></path>
            </g>
            <g>
                <path
                    d="M784.12,550.89s-7.99,8.19-9.81,18.65c0,0-.77,10.33-6.36,17.21-2.11,2.6-5.33,4.04-8.68,4.04h-35.04c-3.18,0-6.32-.85-8.97-2.6-3.33-2.19-6.08-5.81-1.6-10.96-.7,.87-1.03,1.8-.76,2.78,0,0,0,6.37,22.29,5.91l24.37,.02s9.04,.41,11.89-14.82c0,0,1.26-5.98,3.66-12.96,1.84-5.35,4.42-10.4,7.47-15.15,2.04-3.18,4.65-8.76,2.47-14.19l5.02,6.56c.91,1.19,1.21,2.76,.73,4.19-.7,2.1-2.45,5.63-6.68,11.32Z"
                    fill="#fff"></path>
                <path
                    d="M759.26,591.29h-35.04c-3.38,0-6.58-.93-9.25-2.68-2.45-1.62-3.84-3.46-4.11-5.48-.27-1.98,.54-4.07,2.41-6.22l.77,.64c-.66,.81-.88,1.58-.67,2.33l.02,.13s.51,5.86,21.78,5.41l24.38,.02c.36,0,8.67,.17,11.4-14.41,.01-.07,1.29-6.1,3.68-13.03,1.74-5.06,4.27-10.19,7.52-15.26,1.83-2.84,4.57-8.41,2.42-13.73l-1.37-3.41,7.26,9.48c1.03,1.34,1.33,3.08,.81,4.65-.94,2.84-3.22,6.7-6.75,11.46l-.04,.05c-.08,.08-7.91,8.21-9.68,18.39-.03,.38-.84,10.52-6.47,17.44-2.18,2.68-5.49,4.22-9.07,4.22h0Zm-46.89-11.27c-.48,1.03-.65,2.02-.52,2.97,.24,1.72,1.47,3.33,3.67,4.78,2.5,1.65,5.51,2.52,8.7,2.52h35.04c3.28,0,6.3-1.4,8.29-3.85,5.42-6.67,6.24-16.83,6.25-16.93,1.78-10.25,9.43-18.42,9.93-18.94,4.31-5.81,5.96-9.27,6.59-11.15,.42-1.25,.17-2.65-.66-3.73l-3.46-4.52c.78,4.88-1.56,9.55-3.21,12.11-3.21,5-5.7,10.06-7.42,15.04-2.37,6.87-3.63,12.84-3.65,12.9-2.9,15.47-12.02,15.24-12.4,15.21l-24.35-.02c-14.02,.29-19.47-2.11-21.57-4.17-1.04-1.02-1.2-1.9-1.22-2.17,0-.02-.01-.04-.02-.06h.01Z"
                    fill="#231f20"></path>
            </g>
            <path
                d="M744.74,568.58c-.1,0-.21-.03-.3-.1-.22-.17-.26-.48-.1-.7,7.1-9.42,8.08-26.3,8.09-26.47,2.22-15.53-4.78-22.29-4.85-22.36l-14.11-13.65c-.2-.19-.2-.51-.01-.71,.19-.2,.51-.2,.71-.01l14.1,13.65c.3,.28,7.44,7.18,5.15,23.18-.03,.66-1,17.31-8.28,26.97-.1,.13-.25,.2-.4,.2h0Z"
                fill="#231f20"></path>
            <path
                d="M751.74,525.71c-.08,0-.15-.02-.23-.06-4.53-2.33-9.45-.02-9.5,0-.25,.12-.55,.01-.67-.23-.12-.25-.02-.55,.23-.67,.22-.11,5.41-2.55,10.39,0,.25,.13,.34,.43,.22,.67-.09,.17-.26,.27-.45,.27v.02Z"
                fill="#231f20"></path>
            <path
                d="M753.33,537.49c-.09,0-.18-.02-.26-.07-3.94-2.4-10.02-1.51-10.08-1.5-.27,.04-.53-.15-.57-.42-.04-.27,.15-.53,.42-.57,.26-.04,6.5-.96,10.75,1.63,.24,.14,.31,.45,.17,.69-.09,.15-.26,.24-.43,.24h0Z"
                fill="#231f20"></path>
            <path
                d="M751.74,550.68c-.1,0-.2-.03-.28-.09-4.18-2.86-9.74-2.71-9.79-2.71-.26,.02-.51-.21-.52-.48,0-.28,.21-.51,.48-.52,.24,0,5.94-.15,10.39,2.89,.23,.16,.29,.47,.13,.69-.1,.14-.25,.22-.41,.22h0Z"
                fill="#231f20"></path>
            <path
                d="M749.34,559.64c-.13,0-.26-.05-.35-.15-3.39-3.38-8.11-3.29-8.17-3.29-.28-.02-.51-.21-.51-.49s.21-.51,.48-.51c.21,0,5.2-.11,8.9,3.58,.2,.2,.2,.51,0,.71-.1,.1-.23,.15-.35,.15h0Z"
                fill="#231f20"></path>
            <g>
                <path
                    d="M729.27,510.85s-1.55,1.38-16.47-1.13c0,0-47.47-5.32-75.78-14.15l-13.75-12.02-1.36-28.66,7.1-14.38h8.02l42.4,5.73,61.38,29.62,2.12,16.29s-7.6,5.08-10.62,9.61c0,0-.69,.76,.19,1.96l1.33,1.21s-5.46,2.73-4.55,5.91h-.01Z"
                    fill="#0373b4"></path>
                <path
                    d="M726.26,511.73c-2.41,0-6.53-.33-13.54-1.51-.45-.05-47.82-5.42-75.85-14.17l-.18-.1-13.91-12.16-1.38-29,7.29-14.77h8.33l42.54,5.75,.07,.03,61.63,29.74,2.19,16.87-.26,.17c-.08,.05-7.55,5.07-10.48,9.47-.08,.1-.41,.55,.15,1.35l1.83,1.66-.65,.33s-5.08,2.58-4.29,5.33l.09,.3-.23,.21c-.15,.13-.79,.5-3.34,.5h-.01Zm-88.99-16.6c27.95,8.7,75.11,14.05,75.59,14.1,11.48,1.93,14.93,1.54,15.84,1.32-.36-2.67,2.86-4.88,4.27-5.7l-.88-.81c-1.1-1.52-.2-2.55-.16-2.59,2.72-4.09,9.08-8.56,10.46-9.51l-2.04-15.72-61.07-29.47-42.32-5.72h-7.64l-6.9,13.99,1.35,28.32,13.51,11.81v-.02Z"
                    fill="#231f20"></path>
            </g>
            <g>
                <path
                    d="M632.42,457.14s5.41,17.78,4.5,41.43l-3.5,62.65c-.09,1.52-1.06,2.85-2.48,3.4-5.82,2.26-21.3,6.98-33.2-.99,0,0,.4-7.8,.69-14.36l7.11-42.51,15.01-31.39,11.88-18.23h-.01Z"
                    fill="#cfe5cd" data-secondary="true"></path>
                <path
                    d="M613.59,568.58c-5.35,0-11.06-1.14-16.14-4.54l-.24-.16v-.28s.42-7.79,.7-14.36l7.16-42.7,15.01-31.39,12.5-19.19,.31,1.03c.05,.18,5.42,18.13,4.52,41.6l-3.51,62.66c-.1,1.71-1.19,3.22-2.8,3.84-3.53,1.37-10.2,3.5-17.52,3.5h.01Zm-15.35-5.22c11.61,7.58,26.58,3.08,32.51,.79,1.24-.48,2.09-1.64,2.16-2.96l3.5-62.65c.77-20.07-3.07-36.06-4.18-40.21l-11.28,17.31-14.95,31.27-7.1,42.44c-.25,5.77-.59,12.56-.67,14.02h.01Z"
                    fill="#231f20"></path>
            </g>
            <g>
                <path
                    d="M564.83,378.89s-2.96,30.95,13.87,65.54c0,0,9.09-7.27,10-7.72s-10.01-56.87-10.01-56.87l-11.37-4.55-2.48,3.6h-.01Z"
                    fill="#cfe5cd" data-secondary="true"></path>
                <path
                    d="M578.52,445.21l-.27-.56c-16.69-34.31-13.94-65.49-13.92-65.8v-.13l2.8-4.04,12,4.8,.05,.27c.03,.14,2.76,14.27,5.35,28.27,5.3,28.69,4.9,28.89,4.4,29.14-.63,.32-6.27,4.76-9.91,7.67l-.49,.39h-.01Zm-13.2-66.15c-.17,2.19-2.17,31.86,13.56,64.58,1.9-1.52,7.96-6.33,9.38-7.26,.07-2.92-5.88-34.84-10.01-56.19l-10.75-4.3-2.18,3.17h0Z"
                    fill="#231f20"></path>
            </g>
            <g>
                <path d="M571.29,335.48s-3.52,1.14-4.89,3.87l7.16,4.77s-1.03-5.68-2.28-8.63h.01Z" fill="#cfe5cd"
                    data-secondary="true"></path>
                <path
                    d="M574.27,345.17l-8.51-5.66,.2-.4c1.44-2.88,5.03-4.07,5.18-4.12l.44-.14,.18,.42c1.26,2.97,2.27,8.5,2.31,8.74l.21,1.16h-.01Zm-7.21-5.99l5.78,3.85c-.34-1.68-1.04-4.82-1.84-6.91-.88,.37-2.89,1.35-3.95,3.06h.01Z"
                    fill="#231f20"></path>
            </g>
            <g>
                <path
                    d="M562.73,378.41s7.31,1.42,10.04,3.7c0,0,3.18-33.43,0-41.05l-11.83-7.63-16.2-2.26-3.36,16.82,21.35,30.42h0Z"
                    fill="#fda57f"></path>
                <path
                    d="M573.18,383.1l-.73-.61c-2.6-2.17-9.74-3.58-9.81-3.59l-.2-.04-21.59-30.76,3.5-17.49,16.87,2.4,11.96,7.71,.06,.14c3.2,7.65,.17,39.92,.04,41.29l-.09,.94h0Zm-10.15-5.13c1.12,.23,6.45,1.39,9.33,3.23,.47-5.27,2.74-32.82,.01-39.8l-11.6-7.48-15.62-2.18-3.23,16.15,21.11,30.08h0Z"
                    fill="#231f20"></path>
            </g>
            <g>
                <path
                    d="M807.06,395.3c-7.73,12.28-28.21,18.2-28.21,18.2l-121.47,41.85c-16.38-8.64-25.02-9.1-25.02-9.1,.91,25.93-4.09,43.22-4.09,43.22-10.92,31.85-54.09,100.15-54.09,100.15-2.87-.26-5.8-1.05-8.65-2.13-5.96-2.27-11.57-5.83-15.48-8.65h0c-1.27-.91-2.35-1.74-3.22-2.43-1.39-1.1-1.94-2.94-1.39-4.62,7.94-24.19,36.89-95.52,36.89-95.52l-7.39-64.81c-.23-2.07-.51-4.13-.88-6.17-1.9-10.4-1.28-23.19-1.28-23.19,4.55-35.94-1.48-46.63-1.48-46.63,.61-.26,1.22-.52,1.83-.77,23.01-9.55,48.27-12.21,72.88-8.33,40.81,6.43,80.54,21.16,80.54,21.16,52.77,16.38,80.52,47.77,80.52,47.77h0Z"
                    fill="#cfe5cd" data-secondary="true"></path>
                <path
                    d="M574.44,590.15l-.31-.03c-2.71-.25-5.66-.98-8.78-2.16-6.07-2.31-11.74-5.94-15.47-8.62l-.13-.09c-1.12-.8-2.2-1.62-3.24-2.44-1.54-1.22-2.17-3.3-1.55-5.16,7.7-23.47,35.51-92.13,36.85-95.43l-7.37-64.68c-.26-2.27-.54-4.28-.88-6.14-1.89-10.34-1.3-23.17-1.29-23.3,4.47-35.3-1.36-46.26-1.42-46.36l-.27-.48,.51-.22c.61-.27,1.23-.53,1.84-.78,22.72-9.43,48.01-12.33,73.15-8.36,40.39,6.37,80.24,21.04,80.64,21.18,52.28,16.22,80.45,47.59,80.73,47.91l.25,.28-.2,.32c-7.75,12.3-27.65,18.17-28.49,18.41l-121.65,41.92-.19-.1c-13.79-7.28-22.14-8.72-24.27-8.99,.81,25.4-4.08,42.63-4.13,42.8-10.82,31.56-53.71,99.6-54.15,100.28l-.16,.26-.02-.02Zm-24.24-11.81l.14,.09c3.68,2.65,9.33,6.29,15.37,8.59,2.92,1.11,5.68,1.81,8.22,2.07,2.93-4.66,43.44-69.35,53.87-99.79,.04-.15,4.96-17.5,4.07-43.04l-.02-.55,.55,.03c.36,.02,8.87,.56,25.04,9.06l121.26-41.78c.23-.07,20.05-5.91,27.74-17.67-2.91-3.15-30.65-32.02-80.04-47.34-.42-.16-40.18-14.79-80.47-21.14-24.95-3.94-50.06-1.07-72.61,8.3-.45,.18-.9,.37-1.34,.56,1.11,2.48,5.34,14.49,1.3,46.44,0,.09-.59,12.81,1.28,23.04,.34,1.89,.63,3.92,.89,6.21l7.4,64.94-.05,.12c-.29,.71-29.03,71.58-36.88,95.49-.48,1.47,0,3.11,1.22,4.07,.98,.78,2.01,1.56,3.07,2.32v-.02Z"
                    fill="#231f20"></path>
            </g>
            <path d="M724.94,605.03l-.13-.65,.69-.19s.09,.29,.15,.73l-.71,.11h0Z" fill="#ed1c24"></path>
            <path
                d="M632.37,446.75c-.28,0-.5-.22-.5-.5v-57.06c0-.28,.22-.5,.5-.5s.5,.22,.5,.5v57.06c0,.28-.22,.5-.5,.5Z"
                fill="#231f20"></path>
            <path
                d="M582.32,476.78c-.1,0-.2-.03-.29-.1-.22-.16-.27-.47-.11-.7l5.46-7.54c.16-.22,.47-.27,.7-.11,.22,.16,.27,.47,.11,.7l-5.46,7.54c-.1,.13-.25,.21-.41,.21h0Z"
                fill="#231f20"></path>
            <g>
                <path
                    d="M483.9,335.93h0c7.51-13,24.13-17.45,37.13-9.95l30.55,17.64c13,7.51,17.45,24.13,9.95,37.13h0c-7.51,13-24.13,17.45-37.13,9.95l-30.55-17.64c-13-7.51-17.45-24.13-9.95-37.13Z"
                    fill="#fda57f"></path>
                <path
                    d="M537.94,394.84c-4.69,0-9.44-1.19-13.79-3.7l-30.55-17.64c-13.22-7.63-17.76-24.59-10.13-37.81s24.59-17.76,37.81-10.13l30.55,17.64c13.22,7.63,17.76,24.59,10.13,37.81-5.12,8.87-14.44,13.83-24.02,13.83Zm-30.46-71.99c-9.23,0-18.21,4.78-23.15,13.33-7.35,12.74-2.97,29.09,9.76,36.44l30.55,17.64c12.74,7.36,29.09,2.97,36.44-9.76,7.35-12.74,2.97-29.09-9.76-36.44l-30.55-17.64c-4.19-2.42-8.77-3.57-13.29-3.57h0Z"
                    fill="#231f20"></path>
            </g>
            <g>
                <path
                    d="M490.43,370.73s-15.93,6.37-20.03-6.37c0,0-2.06-8.55-.3-14.52,.05-.17-.16-.28-.27-.15-.92,1.08-2.9,2.97-5.79,3.29,0,0,4.09-3.64,7.28-14.56,0,0,3.2-30.25,19.12-35.14,0,0-3.65-.34-5.01-3.53,0,0,4.55,.45,11.37-4.55,0,0,11.37-10.01,21.38-2.27,0,0,20.93-8.64,34.12,20.02l8.64,20.47s-8.08,1.73-13.59,.41l-17.8,1.63s-5,12.97-20.47,10.24c0,0-20.77-4.3-25.04,13.85-.44,1.88-.08,3.88,1,5.49,1.16,1.73,2.96,3.98,5.4,5.69h0Z"
                    fill="#231f20"></path>
                <path
                    d="M481.98,372.83c-2.04,0-4.19-.32-6.16-1.25-2.83-1.33-4.81-3.71-5.89-7.07-.09-.36-1.82-7.68-.62-13.55-1.14,1.06-2.9,2.26-5.22,2.52l-1.55,.17,1.16-1.04s4.04-3.71,7.13-14.33c.11-1.12,3.19-28.63,17.89-34.91-1.26-.46-2.91-1.43-3.77-3.42l-.33-.77,.84,.08s4.47,.35,11.03-4.46c.08-.07,11.6-10.02,21.76-2.43,2.55-.88,22.07-6.61,34.49,20.37l8.89,21.04-.59,.13c-.33,.07-8.18,1.73-13.73,.43l-17.42,1.6c-.88,1.94-6.52,12.79-20.9,10.26-.84-.17-20.36-3.98-24.47,13.47-.41,1.74-.07,3.6,.93,5.09,1.07,1.6,2.85,3.86,5.27,5.56l.76,.53-.86,.34c-.24,.09-4.17,1.64-8.64,1.64h0Zm-12.03-23.69c.11,0,.21,.03,.31,.08,.28,.15,.41,.46,.32,.77-1.69,5.77,.29,14.17,.31,14.26,.98,3.05,2.79,5.23,5.35,6.43,4.74,2.23,10.89,.62,13.13-.11-2.15-1.69-3.76-3.75-4.76-5.25-1.15-1.73-1.54-3.87-1.07-5.88,4.33-18.4,25.42-14.27,25.63-14.22,14.85,2.62,19.71-9.41,19.9-9.93l.11-.29,18.19-1.67,.08,.02c4.49,1.08,10.82,.06,12.78-.3l-8.4-19.91c-12.82-27.85-32.63-20.09-33.47-19.75l-.27,.11-.23-.18c-9.57-7.4-20.64,2.16-20.75,2.25-5.27,3.87-9.21,4.57-10.88,4.67,1.42,2.23,4.2,2.53,4.23,2.53l2.48,.24-2.38,.73c-15.42,4.74-18.73,34.42-18.77,34.72-2.25,7.73-4.92,11.86-6.37,13.69,1.94-.63,3.3-1.96,4.01-2.8,.13-.15,.31-.23,.5-.23l.02,.02Z"
                    fill="#231f20"></path>
            </g>
            <g>
                <ellipse cx="538.66" cy="335.54" rx="8.64" ry="10.69"
                    transform="translate(-95.96 337.21) rotate(-32.07)" fill="#fda57f"></ellipse>
                <path
                    d="M540.42,346.13c-3.49,0-7.22-2.12-9.52-5.8-1.58-2.52-2.27-5.38-1.94-8.08,.33-2.73,1.66-4.96,3.75-6.26,2.09-1.31,4.67-1.53,7.27-.64,2.56,.88,4.84,2.75,6.42,5.27,3.28,5.23,2.47,11.66-1.81,14.34-1.27,.79-2.7,1.17-4.17,1.17Zm-3.54-20.31c-1.32,0-2.56,.34-3.65,1.02-1.83,1.14-2.99,3.11-3.29,5.54-.3,2.46,.34,5.1,1.8,7.42,2.98,4.76,8.51,6.7,12.31,4.31,3.8-2.38,4.47-8.2,1.49-12.96-1.46-2.32-3.55-4.05-5.9-4.85-.94-.32-1.87-.48-2.76-.48h0Z"
                    fill="#231f20"></path>
            </g>
            <g>
                <path
                    d="M804.27,398.93s34.64,45.05,5.53,87.36c0,0-25.02,40.49-90.99-9.55,0,0,11.37,52.77,4.55,72.79l-43.67,5-35.49-113.74s-9.1-30.48,6.82-43.67c0,0,9.55-13.19,60.51-2.73,0,0,35.94,5.91,67.33,19.11,0,0,19.43-7.29,25.41-14.57h0Z"
                    fill="#0373b4"></path>
                <path
                    d="M679.33,555.07l-.12-.4-35.49-113.74c-.09-.31-8.99-30.9,6.94-44.17,.82-1.05,11.41-13.05,60.97-2.87,.34,.06,36.2,6.05,67.24,19.06,2-.77,19.49-7.63,25.01-14.34l.4-.49,.38,.5c.09,.11,8.77,11.52,13.76,27.97,4.61,15.21,6.93,37.95-8.22,59.97-.06,.1-7.45,11.79-24.23,14.91-18.58,3.46-40.93-4.46-66.41-23.54,1.74,8.43,10.53,53.35,4.26,71.75l-.1,.3-44.4,5.09h0Zm-1.77-164.19c-20.96,0-26.07,6.44-26.13,6.53l-.08,.09c-15.48,12.83-6.75,42.84-6.66,43.15l35.36,113.33,42.95-4.92c6.49-19.88-4.55-71.7-4.66-72.22l-.28-1.32,1.08,.82c25.68,19.48,48.11,27.61,66.66,24.17,16.34-3.03,23.53-14.36,23.6-14.48,26.96-39.18-1.52-81.26-5.13-86.29-6.41,7.12-24.42,13.94-25.2,14.23l-.19,.07-.18-.08c-30.97-13.02-66.86-19.02-67.22-19.08-14.36-2.95-25.42-4-33.89-4h-.03Z"
                    fill="#231f20"></path>
            </g>
            <path
                d="M718.8,477.23c-.23,0-.43-.16-.49-.39-7.61-33.11-34.58-54.55-34.85-54.77-.22-.17-.26-.48-.09-.7s.48-.26,.7-.09c.27,.21,27.52,21.88,35.21,55.33,.06,.27-.11,.54-.38,.6-.04,0-.08,.01-.11,.01h0Z"
                fill="#231f20"></path>
            <path
                d="M796.6,420.37c-.06,0-.11,0-.17-.03l-17.74-6.37c-.26-.09-.4-.38-.3-.64,.09-.26,.38-.39,.64-.3l17.74,6.37c.26,.09,.4,.38,.3,.64-.07,.2-.27,.33-.47,.33h0Z"
                fill="#231f20"></path>
            <g>
                <path
                    d="M725.29,604.97c.29,2.53-.67,11.38-29.23,8.25,0,0-1.22,.24-3.35,.59h0c-11.82,2-51.45,7.77-62.24-2.38-1.92-1.81-1.96-4.89-.13-6.79,2.01-2.07,5.95-4.69,13.7-6.79,3.33-.91,6.61-1.98,9.8-3.29l14.46-5.91s9.1-3.36,7.51-16.01v-18.11s-2.05-9.55,16.15-3.64l.2-6.82s18.45-8.19,35.29,0c0,0-6.37,10.92-4.09,38.22l1.8,22.03c.05,.22,.09,.44,.13,.66h0Z"
                    fill="#cfe5cd" data-secondary="true"></path>
                <path
                    d="M656.48,617.74c-11.15,0-21.54-1.42-26.35-5.94-1.02-.95-1.59-2.26-1.63-3.67-.03-1.44,.49-2.8,1.49-3.83,2.74-2.83,7.42-5.16,13.93-6.92,3.47-.94,6.75-2.04,9.74-3.27l14.46-5.91c.37-.14,8.72-3.4,7.2-15.48v-18.13c-.08-.41-.41-2.81,1.47-4.51,2.44-2.2,7.38-2.15,14.7,.14l.19-6.47,.29-.13c.19-.08,18.86-8.19,35.71,0l.48,.24-.27,.47c-.06,.11-6.26,11.15-4.03,37.92l1.81,22.07,.12,.6c.12,1.08,.04,3.19-1.92,5.15-3.99,4-13.34,5.24-27.79,3.66-.27,.05-1.29,.24-2.89,.51l-.4,.07c-6.69,1.13-22.11,3.43-36.31,3.43h0Zm25.68-68.28c-2.48,0-3.89,.62-4.7,1.34-1.6,1.43-1.18,3.53-1.16,3.62v18.21c1.63,12.83-7.73,16.44-7.82,16.48l-14.45,5.91c-3.03,1.24-6.35,2.36-9.86,3.31-7.88,2.14-11.68,4.8-13.47,6.65-.81,.83-1.23,1.94-1.2,3.11,.03,1.15,.49,2.2,1.31,2.97,10.48,9.86,49.09,4.38,61.39,2.33l.42-.07c2.11-.35,3.33-.59,3.34-.59h.15c17.65,1.94,24.45-.76,27.04-3.36,1.65-1.65,1.73-3.4,1.64-4.31l-.13-.64-1.81-22.09c-2.03-24.34,2.72-35.63,3.91-38.03-15.17-7.09-31.74-.85-34.11,.11l-.21,7.17-.63-.21c-4.31-1.4-7.41-1.91-9.65-1.91h0Z"
                    fill="#231f20"></path>
            </g>
            <path
                d="M654.2,603.25c-.24,0-.44-.17-.49-.41-.05-.27,.13-.53,.4-.59,32.44-6.22,35.51-28.91,35.54-29.14l1.82-22.27c.02-.28,.26-.48,.54-.46,.28,.02,.48,.26,.46,.54l-1.82,22.29c-.03,.25-3.16,23.66-36.34,30.02h-.09l-.02,.02Z"
                fill="#231f20"></path>
            <path
                d="M689.52,576.39c-.13,0-.25-.05-.35-.14-4.52-4.38-13.28-4.62-13.37-4.62-.28,0-.5-.23-.49-.51,0-.28,.21-.48,.51-.49,.38,0,9.25,.25,14.05,4.91,.2,.19,.2,.51,.01,.71-.1,.1-.23,.15-.36,.15h0Z"
                fill="#231f20"></path>
            <path
                d="M685.6,584.69c-.15,0-.29-.06-.39-.18-3.47-4.25-9.41-5.16-9.46-5.17-.27-.04-.46-.29-.42-.57s.29-.46,.57-.42c.26,.04,6.38,.96,10.1,5.53,.17,.21,.14,.53-.07,.7-.09,.08-.2,.11-.32,.11h0Z"
                fill="#231f20"></path>
            <path
                d="M679.96,591.29c-.2,0-.38-.12-.46-.31-2.3-5.67-5.85-6.27-6-6.3-.27-.04-.46-.29-.42-.57,.04-.27,.29-.46,.56-.42,.17,.02,4.26,.66,6.79,6.91,.1,.26-.02,.55-.28,.65-.06,.02-.12,.04-.19,.04h0Z"
                fill="#231f20"></path>
            <path
                d="M671.74,597.17c-.21,0-.4-.13-.47-.33-1.91-5.32-5.49-6.73-5.52-6.75-.26-.1-.39-.39-.29-.64,.1-.26,.38-.39,.64-.29,.16,.06,4.03,1.56,6.11,7.34,.09,.26-.04,.55-.3,.64-.06,.02-.11,.03-.17,.03h0Z"
                fill="#231f20"></path>
            <g>
                <path
                    d="M550.05,578.84h0s-3.33,4.84-11.12,6.68c-2.18,.51-4.32,1.14-6.4,1.97-4.18,1.68-10.72,4.63-15.94,8.45-.62,.46-1.32,.79-2.06,1-2.63,.74-9.32,3.11-12.84,8.93,0,0-2.71,3.16-4.22,6.27-1.22,2.52,1.57,5.08,3.95,3.61,2.11-1.29,5.06-3.66,9.01-7.98-.17,.28-2.83,4.69-3.06,8.44-.18,2.92,3.52,4.29,5.28,1.95,1.04-1.38,2.13-3.58,3-7.06,.68-2.68,2.32-5.04,4.63-6.56,1.42-.93,3.17-1.88,5.19-2.55,.96-.32,1.9,.52,1.68,1.51-.63,2.86-1.24,7.99,1.47,11.2,.88,1.05,2.56,.87,3.16-.36,.7-1.45,5.25-11.66,5.14-16.84,0,0,12.69,2.67,18.38,5.26,1.62,.74,12.1-15.27,12.1-15.27l-17.35-8.65Z"
                    fill="#fda57f"></path>
                <path
                    d="M510.33,619.85c-.4,0-.81-.07-1.21-.22-1.46-.54-2.34-1.89-2.25-3.45,.12-1.89,.82-3.94,1.54-5.56-2.47,2.47-4.72,4.33-6.73,5.56-1.27,.78-2.81,.64-3.91-.36-1.12-1.01-1.41-2.54-.75-3.9,1.52-3.13,4.18-6.25,4.29-6.38,3.55-5.88,10.33-8.31,13.08-9.08,.69-.19,1.33-.5,1.9-.92,5.16-3.78,11.58-6.72,16.05-8.51,1.91-.77,4.03-1.42,6.47-2,7.52-1.78,10.79-6.43,10.83-6.48l.15-.22h.38l.11,.05,17.86,8.9-.31,.47c-4.89,7.46-11.08,16.2-12.73,15.45-4.88-2.22-15.11-4.54-17.68-5.1-.23,5.88-5.13,16.33-5.18,16.44-.35,.72-1.03,1.21-1.83,1.32-.82,.1-1.62-.21-2.16-.85-2.85-3.39-2.21-8.74-1.57-11.63,.06-.28-.03-.57-.24-.76-.22-.2-.51-.26-.79-.16-1.72,.57-3.43,1.41-5.07,2.49-2.2,1.44-3.77,3.67-4.42,6.26-.79,3.12-1.83,5.56-3.09,7.24-.68,.9-1.67,1.39-2.72,1.39h-.02Zm-.27-12.4l.79,.6c-.11,.18-2.76,4.53-2.99,8.21-.08,1.35,.81,2.16,1.59,2.45,.82,.3,1.98,.24,2.79-.83,1.18-1.58,2.17-3.89,2.92-6.89,.72-2.84,2.43-5.27,4.84-6.86,1.72-1.13,3.5-2,5.31-2.6,.63-.21,1.29-.07,1.78,.37,.48,.44,.69,1.08,.55,1.72-.6,2.71-1.21,7.71,1.36,10.77,.31,.37,.78,.56,1.27,.5,.47-.06,.85-.33,1.06-.76,1.04-2.14,5.19-11.81,5.09-16.61v-.63l.6,.13c.52,.11,12.81,2.71,18.48,5.3,1.06-.18,6.47-7.48,11.17-14.61l-16.48-8.21c-.94,1.17-4.39,4.94-11.16,6.54-2.39,.56-4.46,1.2-6.33,1.95-4.42,1.77-10.75,4.67-15.83,8.39-.67,.49-1.41,.85-2.22,1.08-2.63,.74-9.13,3.06-12.54,8.7-.08,.1-2.74,3.21-4.2,6.23-.56,1.15-.07,2.19,.52,2.72,.61,.55,1.64,.91,2.72,.25,2.55-1.56,5.55-4.22,8.9-7.89v-.02Z"
                    fill="#231f20"></path>
            </g>
            <path
                d="M510.32,608.21c-.1,0-.2-.03-.28-.09-.23-.16-.28-.47-.13-.7,4.14-5.98,9.58-7.85,9.81-7.92,.26-.09,.54,.05,.63,.32,.09,.26-.05,.54-.32,.63-.05,.02-5.36,1.85-9.3,7.54-.1,.14-.25,.22-.41,.22h0Z"
                fill="#231f20"></path>
        </g>
        <g>
            <g>
                <path
                    d="M70.68,544.84c1.86-1.04,8.99-4.41,17.35-.57,.17,.08,.24,.28,.17,.44l-4.08,8.98-13.44-8.29c-.21-.13-.21-.45,0-.57h0Z"
                    fill="#231f20"></path>
                <path
                    d="M84.33,554.43l-13.93-8.59c-.25-.16-.4-.43-.4-.73s.16-.56,.42-.7h0c2.02-1.13,9.27-4.51,17.8-.58,.42,.19,.6,.69,.41,1.1l-4.31,9.5h0Zm-13.15-9.29l12.71,7.84,3.78-8.32c-7.7-3.47-14.28-.69-16.49,.48Z"
                    fill="#231f20"></path>
            </g>
            <path
                d="M137.26,613.61c-.12,0-.24-.04-.33-.13-7.28-6.55-13.91-9.53-19.68-8.85-5.48,.64-8.2,4.49-8.23,4.53-.08,.12-.21,.2-.36,.21-.15,.02-.29-.03-.4-.13-11.59-10.76-29.25-2.25-29.43-2.17-.17,.08-.37,.06-.53-.05-19.17-14.72-33.01-1.33-33.59-.75-.2,.19-.51,.19-.71,0-.19-.2-.19-.51,0-.71,.15-.15,14.9-14.48,34.66,.48,2.34-1.06,18.6-7.83,29.87,2.1,.93-1.11,3.73-3.93,8.56-4.51,6.08-.73,12.98,2.34,20.49,9.1,.21,.18,.22,.5,.04,.71-.1,.11-.23,.17-.37,.17h.01Z"
                fill="#231f20"></path>
            <g>
                <path
                    d="M64.49,600.05s-5.13-19.92-3.6-29.23l41.86-3.31s4.12,21.21,.26,37.68c0,0-8.51-5.3-24.4,1.44,0,0-6.06-5.09-14.12-6.59h0Z"
                    fill="#56cc6e" data-primary="true"></path>
                <path
                    d="M78.52,607.22l-.23-.2c-.06-.05-6.06-5.03-13.89-6.48l-.31-.06-.08-.31c-.21-.82-5.14-20.13-3.61-29.43l.06-.39,42.7-3.37,.08,.44c.04,.21,4.1,21.5,.25,37.89l-.16,.68-.59-.37c-.08-.05-8.51-5.07-23.94,1.48l-.28,.12Zm-13.62-7.6c7.14,1.41,12.59,5.49,13.79,6.44,13.6-5.68,21.76-2.69,23.98-1.62,3.26-14.78,.22-33.32-.33-36.39l-41.02,3.24c-1.2,8.61,2.95,25.82,3.57,28.33h0Z"
                    fill="#231f20"></path>
            </g>
            <g>
                <path
                    d="M84.7,590.78c-.37,.88-1.57,.98-2.07,.18-2.91-4.73-10.52-19.37-12.41-45.52,0-.14,.13-.24,.25-.18,.61,.27,2.19,.93,4.33,1.38,2.82,.61,6.6,.88,10.34-.55,.98-.37,1.97-.86,2.93-1.49,.11-.08,.27,0,.27,.13,.18,3.35,1.62,33.48-3.65,46.06h.01Z"
                    fill="#56cc6e" data-primary="true"></path>
                <path
                    d="M83.61,592c-.57,0-1.1-.29-1.4-.79-3.13-5.08-10.61-19.72-12.48-45.75-.02-.24,.09-.48,.29-.61,.2-.14,.44-.16,.66-.06,.57,.26,2.13,.9,4.23,1.35,2.53,.55,6.32,.9,10.06-.52,1-.38,1.95-.87,2.83-1.44,.2-.14,.47-.15,.68-.04,.22,.11,.35,.32,.37,.56,.18,3.4,1.62,33.61-3.68,46.28h0c-.25,.59-.79,.98-1.43,1.03h-.13Zm-12.85-46.1c1.92,25.49,9.23,39.79,12.3,44.78,.19,.3,.48,.32,.6,.31,.26-.02,.48-.17,.58-.42,5-11.95,3.9-39.99,3.64-45.28-.8,.49-1.66,.91-2.55,1.25-3.97,1.51-7.97,1.14-10.62,.57-1.74-.37-3.14-.88-3.93-1.2h-.02Zm-.49-.22h0Z"
                    fill="#231f20"></path>
            </g>
            <g>
                <path d="M85.14,546.09c-3.74,1.42-7.52,1.16-10.34,.55l-7.97-88.13,.28-.02,10.04-.89,7.99,88.5h0Z"
                    fill="#fff"></path>
                <path
                    d="M79.25,547.62c-1.72,0-3.29-.23-4.55-.5l-.36-.08-8.05-89,.78-.06,10.53-.94,8.07,89.38-.35,.13c-2.08,.79-4.17,1.07-6.07,1.07Zm-3.98-1.4c2.43,.48,5.9,.74,9.34-.47l-7.91-87.62-9.32,.83,7.89,87.26Z"
                    fill="#231f20"></path>
            </g>
            <g>
                <path
                    d="M88.02,435.37c-11.08-10.7-29.66-7.56-36.64,6.17-4.54,8.92-2.63,18.28-2.63,18.28l18.08-1.33,.28-.02,10.04-.89,18.61-1.66c-.18-10.02-3.49-16.44-7.74-20.55h0Zm-12.71,16.82l-6.81,.54h-.19l-12.26,.81s-1.34-6.25,1.69-12.17c4.66-9.11,17.26-11.11,24.83-3.92,2.91,2.76,5.19,7.05,5.36,13.73,0,0-12.62,1.01-12.62,1.01Z"
                    fill="#56cc6e" data-primary="true"></path>
                <path
                    d="M48.35,460.36l-.09-.43c-.08-.39-1.89-9.63,2.67-18.61,3.4-6.69,9.65-11.26,17.15-12.52,7.49-1.26,14.88,1,20.28,6.21h0c5.08,4.91,7.73,11.94,7.9,20.9v.47l-29.39,2.62s-18.52,1.36-18.52,1.36Zm23.8-30.9c-1.29,0-2.59,.11-3.89,.33-7.19,1.21-13.17,5.58-16.43,11.98-3.86,7.59-2.95,15.6-2.66,17.52l17.9-1.32,28.18-2.51c-.24-8.47-2.79-15.11-7.58-19.74h0c-4.22-4.08-9.73-6.27-15.53-6.27h.01Zm-16.49,24.62l-.09-.42c-.06-.26-1.34-6.49,1.73-12.5,2.26-4.42,6.44-7.44,11.48-8.3,5.2-.89,10.35,.66,14.14,4.25,3.5,3.33,5.36,8.06,5.52,14.08v.47l-20.08,1.6s-12.7,.82-12.7,.82Zm16-20.47c-.9,0-1.8,.08-2.71,.23-4.72,.81-8.65,3.64-10.76,7.77-2.47,4.82-1.94,9.93-1.72,11.41l12-.78,18.95-1.51c-.23-5.52-1.98-9.86-5.19-12.91-2.89-2.74-6.64-4.22-10.57-4.22h0Z"
                    fill="#231f20"></path>
            </g>
        </g>
    </g>
    <g>
        <path
            d="M498.59,375.99c-.25,0-.46-.18-.5-.44,0-.06-.7-6.07,4.21-7.96,.26-.1,.55,.03,.65,.29s-.03,.55-.29,.65c-4.17,1.6-3.6,6.68-3.57,6.9,.03,.27-.16,.52-.43,.56h-.07Z"
            fill="#231f20"></path>
        <g>
            <ellipse cx="508.83" cy="376.16" rx="2.12" ry="2.83" transform="translate(-85.31 593.89) rotate(-56.6)"
                fill="#231f20"></ellipse>
            <path
                d="M509.52,379.05c-.69,0-1.44-.22-2.12-.66-.72-.48-1.26-1.14-1.52-1.87-.28-.78-.21-1.54,.19-2.15s1.08-.97,1.9-1.02c.78-.05,1.6,.19,2.32,.66h0c1.53,1.01,2.13,2.81,1.34,4.02-.44,.67-1.23,1.02-2.1,1.02h-.01Zm-1.35-4.71h-.14c-.51,.03-.91,.23-1.13,.57s-.25,.79-.08,1.26c.19,.53,.59,1.01,1.13,1.37,1.05,.7,2.35,.66,2.84-.07,.48-.73,0-1.94-1.05-2.64h0c-.5-.33-1.05-.5-1.57-.5h0Z"
                fill="#231f20"></path>
        </g>
        <path
            d="M526.18,390.14c-.13,0-.27-.05-.37-.16-.19-.2-.18-.52,.02-.71,4.98-4.65,2.8-10.17,2.71-10.41-.1-.26,.02-.55,.27-.65,.26-.1,.55,.02,.65,.27,.03,.06,2.54,6.39-2.95,11.52-.1,.09-.22,.13-.34,.13h0Z"
            fill="#231f20"></path>
    </g>
    <g>
        <path
            d="M521.48,389.01l-1.45,4.67c-.38,.71-1.35,.82-1.88,.21-.82-1.51-1.78-3.11-2.91-4.76-1.91-2.8-3.89-5.13-5.73-7.03,3.99,2.3,7.98,4.6,11.96,6.91h.01Z"
            fill="#fda57f"></path>
        <path
            d="M519.01,394.79c-.47,0-.93-.2-1.24-.56l-.06-.09c-.88-1.61-1.84-3.2-2.88-4.72-1.69-2.47-3.6-4.81-5.67-6.97l-2.46-2.55,15.38,8.88-1.57,5.05c-.3,.57-.77,.89-1.31,.95-.06,0-.12,.01-.19,.01h0Zm-.46-1.19c.14,.14,.33,.2,.53,.18,.22-.02,.4-.15,.5-.34l1.29-4.2-8.85-5.11c1.29,1.51,2.5,3.09,3.62,4.72,1.04,1.52,2.02,3.12,2.9,4.75h0Z"
            fill="#231f20"></path>
    </g>
    <path
        d="M539.24,338.64c-.2,0-.39-.12-.47-.33l-2.58-6.97c-.1-.26,.04-.55,.3-.64,.26-.1,.55,.04,.64,.3l2.58,6.97c.1,.26-.04,.55-.3,.64-.06,.02-.12,.03-.17,.03h0Z"
        fill="#231f20"></path>
    <path
        d="M469.83,350.2c-.13,0-.26-.05-.36-.16-.19-.2-.18-.52,.02-.71,.04-.04,4.08-3.97,8.64-14.07,.11-.25,.41-.36,.66-.25s.36,.41,.25,.66c-4.64,10.31-8.69,14.22-8.86,14.38-.1,.09-.22,.14-.34,.14h-.01Z"
        fill="#fff"></path>
    <path
        d="M490.43,303.79c-.16,0-.32-.08-.42-.23-.15-.23-.09-.54,.14-.69,.1-.07,10.39-6.68,18.95-1.36,.23,.15,.31,.45,.16,.69-.15,.23-.45,.31-.69,.16-8.03-4.98-17.78,1.29-17.88,1.35-.08,.06-.18,.08-.27,.08h0Z"
        fill="#fff"></path>
    
</svg>